<?xml version="1.0" standalone="no"?>
<!DOCTYPE svg PUBLIC "-//W3C//DTD SVG 20010904//EN"
 "http://www.w3.org/TR/2001/REC-SVG-20010904/DTD/svg10.dtd">
<svg version="1.0" xmlns="http://www.w3.org/2000/svg"
 width="256.000000pt" height="256.000000pt" viewBox="0 0 256.000000 256.000000"
 preserveAspectRatio="xMidYMid meet">
<metadata>
Created by potrace 1.11, written by Peter Selinger 2001-2013
</metadata>
<g transform="translate(0.000000,256.000000) scale(0.100000,-0.100000)"
fill="#000000" stroke="none">
<path d="M559 2173 c-1 -5 -1 -12 0 -16 19 -111 18 -210 -3 -242 -23 -35 -47
-33 -37 3 5 15 7 36 5 47 -1 11 -5 40 -7 65 -15 125 -18 132 -47 127 -15 -3
-52 -17 -82 -30 l-55 -25 35 -73 c19 -40 37 -94 40 -119 4 -47 -10 -90 -29
-90 -6 0 -8 4 -5 9 9 14 -31 131 -64 189 l-31 53 -50 -42 c-147 -123 -233
-337 -224 -559 6 -163 40 -248 139 -345 81 -81 141 -110 226 -110 70 1 96 12
158 69 48 44 65 83 66 146 1 69 -33 139 -88 186 -59 51 -70 46 -63 -23 4 -32
9 -68 11 -81 12 -55 -109 -35 -166 27 -74 82 -26 225 116 346 114 97 206 102
322 17 36 -26 155 -165 128 -150 -33 19 -177 84 -219 98 -66 22 -128 24 -164
6 -45 -24 -45 -41 3 -95 23 -26 49 -57 57 -68 8 -10 56 -52 106 -92 51 -41 96
-83 99 -95 4 -11 6 -46 5 -77 -4 -124 52 -272 161 -424 84 -117 75 -99 109
-233 34 -135 77 -233 121 -279 71 -73 201 -78 281 -12 51 42 115 176 133 278
15 81 40 154 65 185 109 135 167 242 195 357 5 19 12 126 14 196 0 17 34 50
107 107 82 64 204 201 196 221 -8 23 -57 45 -96 45 -58 0 -193 -50 -321 -118
-18 -10 41 65 89 114 134 132 255 128 394 -14 117 -119 148 -227 87 -306 -47
-62 -174 -92 -169 -40 1 11 5 47 9 82 6 54 4 62 -10 62 -23 0 -98 -77 -121
-125 -24 -49 -25 -138 -2 -181 25 -48 101 -110 152 -124 93 -26 180 7 281 105
98 95 134 185 139 345 5 140 -12 228 -70 354 -28 61 -100 160 -142 195 -15 13
-35 30 -45 38 -15 13 -19 10 -43 -31 -34 -59 -64 -136 -67 -176 -3 -36 -10
-38 -28 -6 -19 37 -8 103 32 186 l35 72 -53 24 c-29 12 -65 24 -80 26 -31 3
-38 -14 -50 -112 -10 -84 -10 -93 -3 -127 6 -30 5 -32 -12 -23 -42 23 -55 103
-34 224 l11 68 -70 -5 c-90 -7 -129 -21 -122 -45 3 -9 12 -44 21 -77 10 -33
30 -84 46 -112 24 -44 26 -53 13 -53 -35 0 -89 72 -114 153 -14 42 -28 77 -33
77 -11 0 -63 -36 -96 -66 l-24 -22 37 -66 c21 -37 55 -85 77 -108 21 -23 39
-43 39 -45 0 -9 -44 -1 -70 12 -27 14 -111 121 -122 154 -5 16 -80 -69 -158
-179 -29 -41 -57 -79 -61 -84 -4 -5 -45 -8 -91 -7 -65 1 -86 5 -95 19 -80 112
-106 145 -152 200 l-54 64 -22 -41 c-55 -95 -105 -141 -156 -141 -19 0 -18 4
18 43 22 24 57 74 78 112 l39 68 -35 29 c-51 43 -99 70 -99 55 0 -7 -10 -43
-22 -82 -24 -73 -80 -145 -112 -145 -15 0 -14 6 8 43 22 38 56 133 70 199 6
25 3 27 -45 37 -58 13 -138 15 -140 4z m71 -570 c55 -18 162 -77 180 -98 16
-19 7 -92 -14 -113 -13 -13 -20 -12 -60 9 -73 39 -165 117 -196 166 -16 25
-27 49 -25 54 6 9 56 2 115 -18z m1398 -25 c-37 -65 -187 -185 -239 -190 -27
-4 -49 31 -49 79 0 25 8 38 33 57 66 50 230 111 265 98 9 -3 6 -15 -10 -44z
m-1098 -586 c68 -205 5 -221 -96 -23 -34 67 -34 71 -20 104 8 19 22 40 33 45
26 16 46 -14 83 -126z m807 106 c21 -26 22 -62 4 -103 -29 -66 -101 -165 -120
-165 -37 0 -20 107 35 228 29 65 35 72 52 63 10 -5 23 -16 29 -23z m-507 -771
c23 -37 11 -51 -29 -35 -55 20 -82 72 -43 81 25 5 51 -10 72 -46z m190 23 c0
-21 -26 -45 -62 -59 -35 -13 -44 0 -28 39 19 45 90 61 90 20z"/>
</g>
</svg>
